# xmcd CD database file generated by Grip 2.96
# 
# Track frame offsets:
#       150
#       14230
#       27060
#       40570
#       60472
#       78297
#       92835
#       103460
#       123217
#       138392
#       151950
#       165375
#       185125
#       199860
#       214997
#       239200
#       249632
#       265735
#       282697
#       295875
#       319105
#       329785
# 
# Disc length: 4493 seconds
# 
# Revision: 0
# Processed by: cddbd v1.4PL0 Copyright (c) Steve Scherf et al.
# Submitted via: Grip 2.96
# 
DISCID=54118b16
DTITLE=Various Artist - Stop F/A-18 Disk 1
DYEAR=1900
DGENRE=
TTITLE0=Haenry Ammann - Aer isch vom Amt ufbotte gsy
TTITLE1=Baby Jail - Da chönnt ja jede cho
TTITLE2=B-Goes - You're The Singer and I'm Just The Song
TTITLE3=Capelli - Sinking Ship
TTITLE4=The Covergirls - De Chaschperli
TTITLE5=Crank - Freakbone
TTITLE6=Daellenbach - La Paloma
TTITLE7=Dead End Cowbys - Hoodoo Voodoo
TTITLE8=Djaimin - Emotion
TTITLE9=E-Bop - U'll understand
TTITLE10=Eugen - Chaschper
TTITLE11=Extrem Normal - Different
TTITLE12=The Failures - We Follow You
TTITLE13=Fleisch - Nothing Is Real
TTITLE14=Fou - Inrus En Pays Plat
TTITLE15=Free Cheese for all - My Kampf
TTITLE16=Freedom of Speech - Kasper(li)theater
TTITLE17=Ganglords - Send This Stupid Plane Home
TTITLE18=Goz of Kermeur - Put It In Your Pocket
TTITLE19=Hardy Hepp - S'Paradies iscxh zerschtört
TTITLE20=Jellyfish Kiss - Jungle Man
TTITLE21=Ch. Lauterburger/R. Margot - Tüfu wär wöu
EXTD=
EXTT0=
EXTT1=
EXTT2=
EXTT3=
EXTT4=
EXTT5=
EXTT6=
EXTT7=
EXTT8=
EXTT9=
EXTT10=
EXTT11=
EXTT12=
EXTT13=
EXTT14=
EXTT15=
EXTT16=
EXTT17=
EXTT18=
EXTT19=
EXTT20=
EXTT21=
PLAYORDER=
